<svg xmlns="http://www.w3.org/2000/svg" xmlns:xlink="http://www.w3.org/1999/xlink" width="1920" zoomAndPan="magnify" viewBox="0 0 1440 809.999993" height="1080" preserveAspectRatio="xMidYMid meet" version="1.0"><defs><g/></defs><g fill="#000000" fill-opacity="0.4"><g transform="translate(28.133318, 542.196818)"><g><path d="M 36.453125 0 C 31.003906 0 26.375 -1.898438 22.5625 -5.703125 C 18.757812 -9.515625 16.859375 -14.140625 16.859375 -19.578125 L 16.859375 -190.390625 L 42.15625 -190.390625 L 42.15625 -34.8125 C 42.15625 -32.269531 43.109375 -30.046875 45.015625 -28.140625 C 46.921875 -26.242188 49.234375 -25.296875 51.953125 -25.296875 L 82.6875 -25.296875 C 85.40625 -25.296875 87.710938 -26.242188 89.609375 -28.140625 C 91.515625 -30.046875 92.46875 -32.269531 92.46875 -34.8125 L 92.46875 -190.390625 L 117.765625 -190.390625 L 117.765625 -19.578125 C 117.765625 -14.140625 115.859375 -9.515625 112.046875 -5.703125 C 108.242188 -1.898438 103.625 0 98.1875 0 Z M 36.453125 0 "/></g></g></g><g fill="#000000" fill-opacity="0.4"><g transform="translate(162.763186, 542.196818)"><g><path d="M 16.3125 0 L 16.3125 -190.390625 L 97.921875 -190.390625 C 103.171875 -190.390625 107.695312 -188.484375 111.5 -184.671875 C 115.3125 -180.867188 117.21875 -176.25 117.21875 -170.8125 L 117.21875 -112.328125 C 117.21875 -106.890625 115.3125 -102.265625 111.5 -98.453125 C 107.695312 -94.648438 103.171875 -92.75 97.921875 -92.75 L 92.203125 -92.75 L 117.21875 0 L 92.203125 0 L 66.90625 -92.75 L 41.609375 -92.75 L 41.609375 0 Z M 41.609375 -118.046875 L 82.40625 -118.046875 C 84.945312 -118.046875 87.210938 -118.992188 89.203125 -120.890625 C 91.203125 -122.796875 92.203125 -125.109375 92.203125 -127.828125 L 92.203125 -155.296875 C 92.203125 -158.023438 91.203125 -160.335938 89.203125 -162.234375 C 87.210938 -164.140625 84.945312 -165.09375 82.40625 -165.09375 L 41.609375 -165.09375 Z M 41.609375 -118.046875 "/></g></g></g><g fill="#000000" fill-opacity="0.4"><g transform="translate(296.305157, 542.196818)"><g><path d="M 35.90625 0 C 30.46875 0 25.84375 -1.898438 22.03125 -5.703125 C 18.21875 -9.515625 16.3125 -14.140625 16.3125 -19.578125 L 16.3125 -61.734375 L 41.609375 -56.03125 L 41.609375 -35.09375 C 41.609375 -32.363281 42.5625 -30.046875 44.46875 -28.140625 C 46.375 -26.242188 48.597656 -25.296875 51.140625 -25.296875 L 82.140625 -25.296875 C 84.859375 -25.296875 87.171875 -26.242188 89.078125 -28.140625 C 90.984375 -30.046875 91.9375 -32.363281 91.9375 -35.09375 L 91.9375 -82.953125 C 91.9375 -85.671875 90.984375 -87.984375 89.078125 -89.890625 C 87.171875 -91.796875 84.859375 -92.75 82.140625 -92.75 L 35.90625 -92.75 C 30.46875 -92.75 25.84375 -94.648438 22.03125 -98.453125 C 18.21875 -102.265625 16.3125 -106.890625 16.3125 -112.328125 L 16.3125 -170.8125 C 16.3125 -176.25 18.21875 -180.867188 22.03125 -184.671875 C 25.84375 -188.484375 30.46875 -190.390625 35.90625 -190.390625 L 97.640625 -190.390625 C 103.078125 -190.390625 107.695312 -188.484375 111.5 -184.671875 C 115.3125 -180.867188 117.21875 -176.25 117.21875 -170.8125 L 117.21875 -141.4375 L 91.9375 -147.421875 L 91.9375 -155.296875 C 91.9375 -158.023438 90.984375 -160.335938 89.078125 -162.234375 C 87.171875 -164.140625 84.859375 -165.09375 82.140625 -165.09375 L 51.140625 -165.09375 C 48.597656 -165.09375 46.375 -164.140625 44.46875 -162.234375 C 42.5625 -160.335938 41.609375 -158.023438 41.609375 -155.296875 L 41.609375 -127.828125 C 41.609375 -125.109375 42.5625 -122.796875 44.46875 -120.890625 C 46.375 -118.992188 48.597656 -118.046875 51.140625 -118.046875 L 97.640625 -118.046875 C 103.078125 -118.046875 107.695312 -116.140625 111.5 -112.328125 C 115.3125 -108.523438 117.21875 -103.898438 117.21875 -98.453125 L 117.21875 -19.578125 C 117.21875 -14.140625 115.3125 -9.515625 111.5 -5.703125 C 107.695312 -1.898438 103.078125 0 97.640625 0 Z M 35.90625 0 "/></g></g></g><g fill="#000000" fill-opacity="0.4"><g transform="translate(429.847105, 542.196818)"><g/></g></g><g fill="#000000" fill-opacity="0.4"><g transform="translate(467.924251, 542.196818)"><g><path d="M 10.875 -56.578125 L 10.875 -82.140625 L 87.3125 -82.140625 L 87.3125 -56.578125 Z M 10.875 -56.578125 "/></g></g></g><g fill="#000000" fill-opacity="0.4"><g transform="translate(566.108878, 542.196818)"><g/></g></g><g fill="#000000" fill-opacity="0.4"><g transform="translate(604.186024, 542.196818)"><g><path d="M 16.859375 0 L 16.859375 -190.390625 L 42.15625 -190.390625 L 79.96875 -74.25 L 117.765625 -190.390625 L 143.0625 -190.390625 L 143.0625 0 L 117.765625 0 L 117.765625 -113.140625 L 92.46875 -35.625 L 67.453125 -35.625 L 42.15625 -113.140625 L 42.15625 0 Z M 16.859375 0 "/></g></g></g><g fill="#000000" fill-opacity="0.4"><g transform="translate(764.110009, 542.196818)"><g><path d="M 35.90625 0 C 30.820312 0 26.375 -1.898438 22.5625 -5.703125 C 18.757812 -9.515625 16.859375 -14.234375 16.859375 -19.859375 L 16.859375 -170.53125 C 16.859375 -176.15625 18.757812 -180.867188 22.5625 -184.671875 C 26.375 -188.484375 30.820312 -190.390625 35.90625 -190.390625 L 97.640625 -190.390625 C 103.441406 -190.390625 108.203125 -188.484375 111.921875 -184.671875 C 115.640625 -180.867188 117.5 -176.15625 117.5 -170.53125 L 117.5 -19.859375 C 117.5 -14.234375 115.640625 -9.515625 111.921875 -5.703125 C 108.203125 -1.898438 103.441406 0 97.640625 0 Z M 51.40625 -25.015625 L 82.140625 -25.015625 C 85.222656 -25.015625 87.710938 -26.007812 89.609375 -28 C 91.515625 -30 92.46875 -32.453125 92.46875 -35.359375 L 92.46875 -155.03125 C 92.46875 -158.113281 91.515625 -160.601562 89.609375 -162.5 C 87.710938 -164.40625 85.222656 -165.359375 82.140625 -165.359375 L 51.40625 -165.359375 C 48.863281 -165.359375 46.640625 -164.40625 44.734375 -162.5 C 42.835938 -160.601562 41.890625 -158.113281 41.890625 -155.03125 L 41.890625 -35.359375 C 41.890625 -32.453125 42.835938 -30 44.734375 -28 C 46.640625 -26.007812 48.863281 -25.015625 51.40625 -25.015625 Z M 51.40625 -25.015625 "/></g></g></g><g fill="#000000" fill-opacity="0.4"><g transform="translate(898.467897, 542.196818)"><g><path d="M 16.3125 0 L 16.3125 -190.390625 L 97.921875 -190.390625 C 103.171875 -190.390625 107.695312 -188.484375 111.5 -184.671875 C 115.3125 -180.867188 117.21875 -176.25 117.21875 -170.8125 L 117.21875 -112.328125 C 117.21875 -106.890625 115.3125 -102.265625 111.5 -98.453125 C 107.695312 -94.648438 103.171875 -92.75 97.921875 -92.75 L 92.203125 -92.75 L 117.21875 0 L 92.203125 0 L 66.90625 -92.75 L 41.609375 -92.75 L 41.609375 0 Z M 41.609375 -118.046875 L 82.40625 -118.046875 C 84.945312 -118.046875 87.210938 -118.992188 89.203125 -120.890625 C 91.203125 -122.796875 92.203125 -125.109375 92.203125 -127.828125 L 92.203125 -155.296875 C 92.203125 -158.023438 91.203125 -160.335938 89.203125 -162.234375 C 87.210938 -164.140625 84.945312 -165.09375 82.40625 -165.09375 L 41.609375 -165.09375 Z M 41.609375 -118.046875 "/></g></g></g><g fill="#000000" fill-opacity="0.4"><g transform="translate(1032.009913, 542.196818)"><g><path d="M 35.90625 0 C 30.820312 0 26.375 -1.898438 22.5625 -5.703125 C 18.757812 -9.515625 16.859375 -14.234375 16.859375 -19.859375 L 16.859375 -170.53125 C 16.859375 -176.15625 18.757812 -180.867188 22.5625 -184.671875 C 26.375 -188.484375 30.820312 -190.390625 35.90625 -190.390625 L 97.640625 -190.390625 C 103.441406 -190.390625 108.203125 -188.484375 111.921875 -184.671875 C 115.640625 -180.867188 117.5 -176.15625 117.5 -170.53125 L 117.5 -19.859375 C 117.5 -14.234375 115.640625 -9.515625 111.921875 -5.703125 C 108.203125 -1.898438 103.441406 0 97.640625 0 Z M 51.40625 -25.015625 L 82.140625 -25.015625 C 85.222656 -25.015625 87.710938 -26.007812 89.609375 -28 C 91.515625 -30 92.46875 -32.453125 92.46875 -35.359375 L 92.46875 -155.03125 C 92.46875 -158.113281 91.515625 -160.601562 89.609375 -162.5 C 87.710938 -164.40625 85.222656 -165.359375 82.140625 -165.359375 L 51.40625 -165.359375 C 48.863281 -165.359375 46.640625 -164.40625 44.734375 -162.5 C 42.835938 -160.601562 41.890625 -158.113281 41.890625 -155.03125 L 41.890625 -35.359375 C 41.890625 -32.453125 42.835938 -30 44.734375 -28 C 46.640625 -26.007812 48.863281 -25.015625 51.40625 -25.015625 Z M 51.40625 -25.015625 "/></g></g></g><g fill="#000000" fill-opacity="0.4"><g transform="translate(1166.367846, 542.196818)"><g><path d="M 16.859375 0 L 16.859375 -190.390625 L 42.15625 -190.390625 L 92.75 -63.375 L 92.75 -190.390625 L 118.046875 -190.390625 L 118.046875 0 L 92.75 0 L 42.15625 -127.015625 L 42.15625 0 Z M 16.859375 0 "/></g></g></g><g fill="#000000" fill-opacity="0.4"><g transform="translate(1301.269694, 542.196818)"><g><path d="M 36.453125 0 C 31.003906 0 26.375 -1.898438 22.5625 -5.703125 C 18.757812 -9.515625 16.859375 -14.140625 16.859375 -19.578125 L 16.859375 -171.078125 C 16.859375 -176.335938 18.757812 -180.867188 22.5625 -184.671875 C 26.375 -188.484375 31.003906 -190.390625 36.453125 -190.390625 L 98.1875 -190.390625 C 103.625 -190.390625 108.242188 -188.484375 112.046875 -184.671875 C 115.859375 -180.867188 117.765625 -176.335938 117.765625 -171.078125 L 117.765625 -128.65625 L 92.46875 -134.359375 L 92.46875 -155.578125 C 92.46875 -158.296875 91.515625 -160.601562 89.609375 -162.5 C 87.710938 -164.40625 85.40625 -165.359375 82.6875 -165.359375 L 51.953125 -165.359375 C 49.234375 -165.359375 46.921875 -164.40625 45.015625 -162.5 C 43.109375 -160.601562 42.15625 -158.296875 42.15625 -155.578125 L 42.15625 -35.09375 C 42.15625 -32.363281 43.109375 -30.046875 45.015625 -28.140625 C 46.921875 -26.242188 49.234375 -25.296875 51.953125 -25.296875 L 82.6875 -25.296875 C 85.40625 -25.296875 87.710938 -26.242188 89.609375 -28.140625 C 91.515625 -30.046875 92.46875 -32.363281 92.46875 -35.09375 L 92.46875 -61.46875 L 67.453125 -61.46875 L 73.15625 -86.765625 L 117.765625 -86.765625 L 117.765625 -19.578125 C 117.765625 -14.140625 115.859375 -9.515625 112.046875 -5.703125 C 108.242188 -1.898438 103.625 0 98.1875 0 Z M 36.453125 0 "/></g></g></g><g fill="#004aad" fill-opacity="1"><g transform="translate(16.113287, 530.176781)"><g><path d="M 36.453125 0 C 31.003906 0 26.375 -1.898438 22.5625 -5.703125 C 18.757812 -9.515625 16.859375 -14.140625 16.859375 -19.578125 L 16.859375 -190.390625 L 42.15625 -190.390625 L 42.15625 -34.8125 C 42.15625 -32.269531 43.109375 -30.046875 45.015625 -28.140625 C 46.921875 -26.242188 49.234375 -25.296875 51.953125 -25.296875 L 82.6875 -25.296875 C 85.40625 -25.296875 87.710938 -26.242188 89.609375 -28.140625 C 91.515625 -30.046875 92.46875 -32.269531 92.46875 -34.8125 L 92.46875 -190.390625 L 117.765625 -190.390625 L 117.765625 -19.578125 C 117.765625 -14.140625 115.859375 -9.515625 112.046875 -5.703125 C 108.242188 -1.898438 103.625 0 98.1875 0 Z M 36.453125 0 "/></g></g></g><g fill="#004aad" fill-opacity="1"><g transform="translate(150.743155, 530.176781)"><g><path d="M 16.3125 0 L 16.3125 -190.390625 L 97.921875 -190.390625 C 103.171875 -190.390625 107.695312 -188.484375 111.5 -184.671875 C 115.3125 -180.867188 117.21875 -176.25 117.21875 -170.8125 L 117.21875 -112.328125 C 117.21875 -106.890625 115.3125 -102.265625 111.5 -98.453125 C 107.695312 -94.648438 103.171875 -92.75 97.921875 -92.75 L 92.203125 -92.75 L 117.21875 0 L 92.203125 0 L 66.90625 -92.75 L 41.609375 -92.75 L 41.609375 0 Z M 41.609375 -118.046875 L 82.40625 -118.046875 C 84.945312 -118.046875 87.210938 -118.992188 89.203125 -120.890625 C 91.203125 -122.796875 92.203125 -125.109375 92.203125 -127.828125 L 92.203125 -155.296875 C 92.203125 -158.023438 91.203125 -160.335938 89.203125 -162.234375 C 87.210938 -164.140625 84.945312 -165.09375 82.40625 -165.09375 L 41.609375 -165.09375 Z M 41.609375 -118.046875 "/></g></g></g><g fill="#004aad" fill-opacity="1"><g transform="translate(284.285126, 530.176781)"><g><path d="M 35.90625 0 C 30.46875 0 25.84375 -1.898438 22.03125 -5.703125 C 18.21875 -9.515625 16.3125 -14.140625 16.3125 -19.578125 L 16.3125 -61.734375 L 41.609375 -56.03125 L 41.609375 -35.09375 C 41.609375 -32.363281 42.5625 -30.046875 44.46875 -28.140625 C 46.375 -26.242188 48.597656 -25.296875 51.140625 -25.296875 L 82.140625 -25.296875 C 84.859375 -25.296875 87.171875 -26.242188 89.078125 -28.140625 C 90.984375 -30.046875 91.9375 -32.363281 91.9375 -35.09375 L 91.9375 -82.953125 C 91.9375 -85.671875 90.984375 -87.984375 89.078125 -89.890625 C 87.171875 -91.796875 84.859375 -92.75 82.140625 -92.75 L 35.90625 -92.75 C 30.46875 -92.75 25.84375 -94.648438 22.03125 -98.453125 C 18.21875 -102.265625 16.3125 -106.890625 16.3125 -112.328125 L 16.3125 -170.8125 C 16.3125 -176.25 18.21875 -180.867188 22.03125 -184.671875 C 25.84375 -188.484375 30.46875 -190.390625 35.90625 -190.390625 L 97.640625 -190.390625 C 103.078125 -190.390625 107.695312 -188.484375 111.5 -184.671875 C 115.3125 -180.867188 117.21875 -176.25 117.21875 -170.8125 L 117.21875 -141.4375 L 91.9375 -147.421875 L 91.9375 -155.296875 C 91.9375 -158.023438 90.984375 -160.335938 89.078125 -162.234375 C 87.171875 -164.140625 84.859375 -165.09375 82.140625 -165.09375 L 51.140625 -165.09375 C 48.597656 -165.09375 46.375 -164.140625 44.46875 -162.234375 C 42.5625 -160.335938 41.609375 -158.023438 41.609375 -155.296875 L 41.609375 -127.828125 C 41.609375 -125.109375 42.5625 -122.796875 44.46875 -120.890625 C 46.375 -118.992188 48.597656 -118.046875 51.140625 -118.046875 L 97.640625 -118.046875 C 103.078125 -118.046875 107.695312 -116.140625 111.5 -112.328125 C 115.3125 -108.523438 117.21875 -103.898438 117.21875 -98.453125 L 117.21875 -19.578125 C 117.21875 -14.140625 115.3125 -9.515625 111.5 -5.703125 C 107.695312 -1.898438 103.078125 0 97.640625 0 Z M 35.90625 0 "/></g></g></g><g fill="#004aad" fill-opacity="1"><g transform="translate(417.827074, 530.176781)"><g/></g></g><g fill="#004aad" fill-opacity="1"><g transform="translate(455.90422, 530.176781)"><g><path d="M 10.875 -56.578125 L 10.875 -82.140625 L 87.3125 -82.140625 L 87.3125 -56.578125 Z M 10.875 -56.578125 "/></g></g></g><g fill="#004aad" fill-opacity="1"><g transform="translate(554.088847, 530.176781)"><g/></g></g><g fill="#004aad" fill-opacity="1"><g transform="translate(592.165993, 530.176781)"><g><path d="M 16.859375 0 L 16.859375 -190.390625 L 42.15625 -190.390625 L 79.96875 -74.25 L 117.765625 -190.390625 L 143.0625 -190.390625 L 143.0625 0 L 117.765625 0 L 117.765625 -113.140625 L 92.46875 -35.625 L 67.453125 -35.625 L 42.15625 -113.140625 L 42.15625 0 Z M 16.859375 0 "/></g></g></g><g fill="#004aad" fill-opacity="1"><g transform="translate(752.089978, 530.176781)"><g><path d="M 35.90625 0 C 30.820312 0 26.375 -1.898438 22.5625 -5.703125 C 18.757812 -9.515625 16.859375 -14.234375 16.859375 -19.859375 L 16.859375 -170.53125 C 16.859375 -176.15625 18.757812 -180.867188 22.5625 -184.671875 C 26.375 -188.484375 30.820312 -190.390625 35.90625 -190.390625 L 97.640625 -190.390625 C 103.441406 -190.390625 108.203125 -188.484375 111.921875 -184.671875 C 115.640625 -180.867188 117.5 -176.15625 117.5 -170.53125 L 117.5 -19.859375 C 117.5 -14.234375 115.640625 -9.515625 111.921875 -5.703125 C 108.203125 -1.898438 103.441406 0 97.640625 0 Z M 51.40625 -25.015625 L 82.140625 -25.015625 C 85.222656 -25.015625 87.710938 -26.007812 89.609375 -28 C 91.515625 -30 92.46875 -32.453125 92.46875 -35.359375 L 92.46875 -155.03125 C 92.46875 -158.113281 91.515625 -160.601562 89.609375 -162.5 C 87.710938 -164.40625 85.222656 -165.359375 82.140625 -165.359375 L 51.40625 -165.359375 C 48.863281 -165.359375 46.640625 -164.40625 44.734375 -162.5 C 42.835938 -160.601562 41.890625 -158.113281 41.890625 -155.03125 L 41.890625 -35.359375 C 41.890625 -32.453125 42.835938 -30 44.734375 -28 C 46.640625 -26.007812 48.863281 -25.015625 51.40625 -25.015625 Z M 51.40625 -25.015625 "/></g></g></g><g fill="#004aad" fill-opacity="1"><g transform="translate(886.447866, 530.176781)"><g><path d="M 16.3125 0 L 16.3125 -190.390625 L 97.921875 -190.390625 C 103.171875 -190.390625 107.695312 -188.484375 111.5 -184.671875 C 115.3125 -180.867188 117.21875 -176.25 117.21875 -170.8125 L 117.21875 -112.328125 C 117.21875 -106.890625 115.3125 -102.265625 111.5 -98.453125 C 107.695312 -94.648438 103.171875 -92.75 97.921875 -92.75 L 92.203125 -92.75 L 117.21875 0 L 92.203125 0 L 66.90625 -92.75 L 41.609375 -92.75 L 41.609375 0 Z M 41.609375 -118.046875 L 82.40625 -118.046875 C 84.945312 -118.046875 87.210938 -118.992188 89.203125 -120.890625 C 91.203125 -122.796875 92.203125 -125.109375 92.203125 -127.828125 L 92.203125 -155.296875 C 92.203125 -158.023438 91.203125 -160.335938 89.203125 -162.234375 C 87.210938 -164.140625 84.945312 -165.09375 82.40625 -165.09375 L 41.609375 -165.09375 Z M 41.609375 -118.046875 "/></g></g></g><g fill="#004aad" fill-opacity="1"><g transform="translate(1019.989882, 530.176781)"><g><path d="M 35.90625 0 C 30.820312 0 26.375 -1.898438 22.5625 -5.703125 C 18.757812 -9.515625 16.859375 -14.234375 16.859375 -19.859375 L 16.859375 -170.53125 C 16.859375 -176.15625 18.757812 -180.867188 22.5625 -184.671875 C 26.375 -188.484375 30.820312 -190.390625 35.90625 -190.390625 L 97.640625 -190.390625 C 103.441406 -190.390625 108.203125 -188.484375 111.921875 -184.671875 C 115.640625 -180.867188 117.5 -176.15625 117.5 -170.53125 L 117.5 -19.859375 C 117.5 -14.234375 115.640625 -9.515625 111.921875 -5.703125 C 108.203125 -1.898438 103.441406 0 97.640625 0 Z M 51.40625 -25.015625 L 82.140625 -25.015625 C 85.222656 -25.015625 87.710938 -26.007812 89.609375 -28 C 91.515625 -30 92.46875 -32.453125 92.46875 -35.359375 L 92.46875 -155.03125 C 92.46875 -158.113281 91.515625 -160.601562 89.609375 -162.5 C 87.710938 -164.40625 85.222656 -165.359375 82.140625 -165.359375 L 51.40625 -165.359375 C 48.863281 -165.359375 46.640625 -164.40625 44.734375 -162.5 C 42.835938 -160.601562 41.890625 -158.113281 41.890625 -155.03125 L 41.890625 -35.359375 C 41.890625 -32.453125 42.835938 -30 44.734375 -28 C 46.640625 -26.007812 48.863281 -25.015625 51.40625 -25.015625 Z M 51.40625 -25.015625 "/></g></g></g><g fill="#004aad" fill-opacity="1"><g transform="translate(1154.347815, 530.176781)"><g><path d="M 16.859375 0 L 16.859375 -190.390625 L 42.15625 -190.390625 L 92.75 -63.375 L 92.75 -190.390625 L 118.046875 -190.390625 L 118.046875 0 L 92.75 0 L 42.15625 -127.015625 L 42.15625 0 Z M 16.859375 0 "/></g></g></g><g fill="#004aad" fill-opacity="1"><g transform="translate(1289.249663, 530.176781)"><g><path d="M 36.453125 0 C 31.003906 0 26.375 -1.898438 22.5625 -5.703125 C 18.757812 -9.515625 16.859375 -14.140625 16.859375 -19.578125 L 16.859375 -171.078125 C 16.859375 -176.335938 18.757812 -180.867188 22.5625 -184.671875 C 26.375 -188.484375 31.003906 -190.390625 36.453125 -190.390625 L 98.1875 -190.390625 C 103.625 -190.390625 108.242188 -188.484375 112.046875 -184.671875 C 115.859375 -180.867188 117.765625 -176.335938 117.765625 -171.078125 L 117.765625 -128.65625 L 92.46875 -134.359375 L 92.46875 -155.578125 C 92.46875 -158.296875 91.515625 -160.601562 89.609375 -162.5 C 87.710938 -164.40625 85.40625 -165.359375 82.6875 -165.359375 L 51.953125 -165.359375 C 49.234375 -165.359375 46.921875 -164.40625 45.015625 -162.5 C 43.109375 -160.601562 42.15625 -158.296875 42.15625 -155.578125 L 42.15625 -35.09375 C 42.15625 -32.363281 43.109375 -30.046875 45.015625 -28.140625 C 46.921875 -26.242188 49.234375 -25.296875 51.953125 -25.296875 L 82.6875 -25.296875 C 85.40625 -25.296875 87.710938 -26.242188 89.609375 -28.140625 C 91.515625 -30.046875 92.46875 -32.363281 92.46875 -35.09375 L 92.46875 -61.46875 L 67.453125 -61.46875 L 73.15625 -86.765625 L 117.765625 -86.765625 L 117.765625 -19.578125 C 117.765625 -14.140625 115.859375 -9.515625 112.046875 -5.703125 C 108.242188 -1.898438 103.625 0 98.1875 0 Z M 36.453125 0 "/></g></g></g></svg>