<svg xmlns="http://www.w3.org/2000/svg" xmlns:xlink="http://www.w3.org/1999/xlink" width="1920" zoomAndPan="magnify" viewBox="0 0 1440 809.999993" height="1080" preserveAspectRatio="xMidYMid meet" version="1.0"><defs><g/></defs><g fill="#ffffff" fill-opacity="1"><g transform="translate(-18.134758, 396.999974)"><g><path d="M 66.15625 0 L 18.203125 -245 L 50.75 -245 L 83.296875 -79.453125 L 115.84375 -245 L 148.40625 -245 L 180.59375 -79.453125 L 213.15625 -245 L 245.703125 -245 L 197.75 0 L 163.796875 0 L 131.953125 -162.40625 L 100.09375 0 Z M 66.15625 0 "/></g></g></g><g fill="#ffffff" fill-opacity="1"><g transform="translate(245.761016, 396.999974)"><g><path d="M 21.703125 0 L 21.703125 -245 L 151.90625 -245 L 151.90625 -212.796875 L 54.25 -212.796875 L 54.25 -151.90625 L 119.34375 -151.90625 L 112 -119.34375 L 54.25 -119.34375 L 54.25 -32.546875 L 151.90625 -32.546875 L 151.90625 0 Z M 21.703125 0 "/></g></g></g><g fill="#ffffff" fill-opacity="1"><g transform="translate(419.358197, 396.999974)"><g><path d="M 21.703125 0 L 21.703125 -245 L 54.25 -245 L 54.25 -32.546875 L 137.90625 -32.546875 L 137.90625 0 Z M 21.703125 0 "/></g></g></g><g fill="#ffffff" fill-opacity="1"><g transform="translate(577.555637, 396.999974)"><g><path d="M 46.90625 0 C 40.363281 0 34.523438 -2.445312 29.390625 -7.34375 C 24.265625 -12.25 21.703125 -18.203125 21.703125 -25.203125 L 21.703125 -219.796875 C 21.703125 -226.566406 24.265625 -232.457031 29.390625 -237.46875 C 34.523438 -242.488281 40.363281 -245 46.90625 -245 L 126.34375 -245 C 133.582031 -245 139.59375 -242.488281 144.375 -237.46875 C 149.15625 -232.457031 151.546875 -226.566406 151.546875 -219.796875 L 151.546875 -174.296875 L 119 -166.953125 L 119 -199.84375 C 119 -203.113281 117.890625 -206.03125 115.671875 -208.59375 C 113.453125 -211.164062 110.476562 -212.453125 106.75 -212.453125 L 66.84375 -212.453125 C 63.582031 -212.453125 60.664062 -211.164062 58.09375 -208.59375 C 55.53125 -206.03125 54.25 -203.113281 54.25 -199.84375 L 54.25 -45.15625 C 54.25 -41.414062 55.53125 -38.378906 58.09375 -36.046875 C 60.664062 -33.710938 63.582031 -32.546875 66.84375 -32.546875 L 106.75 -32.546875 C 110.476562 -32.546875 113.453125 -33.710938 115.671875 -36.046875 C 117.890625 -38.378906 119 -41.414062 119 -45.15625 L 119 -70.703125 L 151.546875 -78.40625 L 151.546875 -25.203125 C 151.546875 -18.203125 149.15625 -12.25 144.375 -7.34375 C 139.59375 -2.445312 133.582031 0 126.34375 0 Z M 46.90625 0 "/></g></g></g><g fill="#ffffff" fill-opacity="1"><g transform="translate(750.802883, 396.999974)"><g><path d="M 46.203125 0 C 39.671875 0 33.953125 -2.445312 29.046875 -7.34375 C 24.148438 -12.25 21.703125 -18.316406 21.703125 -25.546875 L 21.703125 -219.453125 C 21.703125 -226.679688 24.148438 -232.742188 29.046875 -237.640625 C 33.953125 -242.546875 39.671875 -245 46.203125 -245 L 125.65625 -245 C 133.113281 -245 139.234375 -242.546875 144.015625 -237.640625 C 148.804688 -232.742188 151.203125 -226.679688 151.203125 -219.453125 L 151.203125 -25.546875 C 151.203125 -18.316406 148.804688 -12.25 144.015625 -7.34375 C 139.234375 -2.445312 133.113281 0 125.65625 0 Z M 66.15625 -32.203125 L 105.703125 -32.203125 C 109.671875 -32.203125 112.878906 -33.484375 115.328125 -36.046875 C 117.773438 -38.617188 119 -41.769531 119 -45.5 L 119 -199.5 C 119 -203.46875 117.773438 -206.675781 115.328125 -209.125 C 112.878906 -211.570312 109.671875 -212.796875 105.703125 -212.796875 L 66.15625 -212.796875 C 62.882812 -212.796875 60.023438 -211.570312 57.578125 -209.125 C 55.128906 -206.675781 53.90625 -203.46875 53.90625 -199.5 L 53.90625 -45.5 C 53.90625 -41.769531 55.128906 -38.617188 57.578125 -36.046875 C 60.023438 -33.484375 62.882812 -32.203125 66.15625 -32.203125 Z M 66.15625 -32.203125 "/></g></g></g><g fill="#ffffff" fill-opacity="1"><g transform="translate(923.700119, 396.999974)"><g><path d="M 21.703125 0 L 21.703125 -245 L 54.25 -245 L 102.90625 -95.546875 L 151.546875 -245 L 184.09375 -245 L 184.09375 0 L 151.546875 0 L 151.546875 -145.59375 L 119 -45.84375 L 86.796875 -45.84375 L 54.25 -145.59375 L 54.25 0 Z M 21.703125 0 "/></g></g></g><g fill="#ffffff" fill-opacity="1"><g transform="translate(1129.496831, 396.999974)"><g><path d="M 21.703125 0 L 21.703125 -245 L 151.90625 -245 L 151.90625 -212.796875 L 54.25 -212.796875 L 54.25 -151.90625 L 119.34375 -151.90625 L 112 -119.34375 L 54.25 -119.34375 L 54.25 -32.546875 L 151.90625 -32.546875 L 151.90625 0 Z M 21.703125 0 "/></g></g></g><g fill="#ffffff" fill-opacity="1"><g transform="translate(1305.621043, 315.731927)"><g><path d="M 26.984375 0 L 26.984375 -83.15625 L 7.9375 -83.15625 L 7.9375 -95.890625 L 58.765625 -95.890625 L 58.765625 -83.15625 L 39.71875 -83.15625 L 39.71875 0 Z M 26.984375 0 "/></g></g></g><g fill="#ffffff" fill-opacity="1"><g transform="translate(1372.330505, 315.731927)"><g><path d="M 18.078125 0 C 15.523438 0 13.289062 -0.957031 11.375 -2.875 C 9.457031 -4.789062 8.5 -7.164062 8.5 -10 L 8.5 -85.890625 C 8.5 -88.722656 9.457031 -91.097656 11.375 -93.015625 C 13.289062 -94.929688 15.523438 -95.890625 18.078125 -95.890625 L 49.171875 -95.890625 C 52.097656 -95.890625 54.492188 -94.929688 56.359375 -93.015625 C 58.234375 -91.097656 59.171875 -88.722656 59.171875 -85.890625 L 59.171875 -10 C 59.171875 -7.164062 58.234375 -4.789062 56.359375 -2.875 C 54.492188 -0.957031 52.097656 0 49.171875 0 Z M 25.890625 -12.609375 L 41.375 -12.609375 C 42.925781 -12.609375 44.179688 -13.109375 45.140625 -14.109375 C 46.097656 -15.109375 46.578125 -16.34375 46.578125 -17.8125 L 46.578125 -78.078125 C 46.578125 -79.628906 46.097656 -80.882812 45.140625 -81.84375 C 44.179688 -82.800781 42.925781 -83.28125 41.375 -83.28125 L 25.890625 -83.28125 C 24.609375 -83.28125 23.488281 -82.800781 22.53125 -81.84375 C 21.570312 -80.882812 21.09375 -79.628906 21.09375 -78.078125 L 21.09375 -17.8125 C 21.09375 -16.34375 21.570312 -15.109375 22.53125 -14.109375 C 23.488281 -13.109375 24.609375 -12.609375 25.890625 -12.609375 Z M 25.890625 -12.609375 "/></g></g></g><g fill="#000000" fill-opacity="0.4"><g transform="translate(27.188541, 594.088819)"><g><path d="M 26.796875 0 C 22.796875 0 19.394531 -1.398438 16.59375 -4.203125 C 13.800781 -7.003906 12.40625 -10.40625 12.40625 -14.40625 L 12.40625 -140 L 31 -140 L 31 -25.59375 C 31 -23.726562 31.695312 -22.09375 33.09375 -20.6875 C 34.5 -19.289062 36.203125 -18.59375 38.203125 -18.59375 L 60.796875 -18.59375 C 62.796875 -18.59375 64.492188 -19.289062 65.890625 -20.6875 C 67.296875 -22.09375 68 -23.726562 68 -25.59375 L 68 -140 L 86.59375 -140 L 86.59375 -14.40625 C 86.59375 -10.40625 85.191406 -7.003906 82.390625 -4.203125 C 79.597656 -1.398438 76.203125 0 72.203125 0 Z M 26.796875 0 "/></g></g></g><g fill="#000000" fill-opacity="0.4"><g transform="translate(126.185892, 594.088819)"><g><path d="M 12 0 L 12 -140 L 72 -140 C 75.863281 -140 79.195312 -138.597656 82 -135.796875 C 84.800781 -132.992188 86.203125 -129.59375 86.203125 -125.59375 L 86.203125 -82.59375 C 86.203125 -78.59375 84.800781 -75.191406 82 -72.390625 C 79.195312 -69.597656 75.863281 -68.203125 72 -68.203125 L 67.796875 -68.203125 L 86.203125 0 L 67.796875 0 L 49.203125 -68.203125 L 30.59375 -68.203125 L 30.59375 0 Z M 30.59375 -86.796875 L 60.59375 -86.796875 C 62.46875 -86.796875 64.132812 -87.492188 65.59375 -88.890625 C 67.0625 -90.296875 67.796875 -92 67.796875 -94 L 67.796875 -114.203125 C 67.796875 -116.203125 67.0625 -117.898438 65.59375 -119.296875 C 64.132812 -120.703125 62.46875 -121.40625 60.59375 -121.40625 L 30.59375 -121.40625 Z M 30.59375 -86.796875 "/></g></g></g><g fill="#000000" fill-opacity="0.4"><g transform="translate(224.383279, 594.088819)"><g><path d="M 26.40625 0 C 22.40625 0 19.003906 -1.398438 16.203125 -4.203125 C 13.398438 -7.003906 12 -10.40625 12 -14.40625 L 12 -45.40625 L 30.59375 -41.203125 L 30.59375 -25.796875 C 30.59375 -23.796875 31.289062 -22.09375 32.6875 -20.6875 C 34.09375 -19.289062 35.726562 -18.59375 37.59375 -18.59375 L 60.40625 -18.59375 C 62.40625 -18.59375 64.101562 -19.289062 65.5 -20.6875 C 66.894531 -22.09375 67.59375 -23.796875 67.59375 -25.796875 L 67.59375 -61 C 67.59375 -63 66.894531 -64.695312 65.5 -66.09375 C 64.101562 -67.5 62.40625 -68.203125 60.40625 -68.203125 L 26.40625 -68.203125 C 22.40625 -68.203125 19.003906 -69.597656 16.203125 -72.390625 C 13.398438 -75.191406 12 -78.59375 12 -82.59375 L 12 -125.59375 C 12 -129.59375 13.398438 -132.992188 16.203125 -135.796875 C 19.003906 -138.597656 22.40625 -140 26.40625 -140 L 71.796875 -140 C 75.796875 -140 79.195312 -138.597656 82 -135.796875 C 84.800781 -132.992188 86.203125 -129.59375 86.203125 -125.59375 L 86.203125 -104 L 67.59375 -108.40625 L 67.59375 -114.203125 C 67.59375 -116.203125 66.894531 -117.898438 65.5 -119.296875 C 64.101562 -120.703125 62.40625 -121.40625 60.40625 -121.40625 L 37.59375 -121.40625 C 35.726562 -121.40625 34.09375 -120.703125 32.6875 -119.296875 C 31.289062 -117.898438 30.59375 -116.203125 30.59375 -114.203125 L 30.59375 -94 C 30.59375 -92 31.289062 -90.296875 32.6875 -88.890625 C 34.09375 -87.492188 35.726562 -86.796875 37.59375 -86.796875 L 71.796875 -86.796875 C 75.796875 -86.796875 79.195312 -85.394531 82 -82.59375 C 84.800781 -79.800781 86.203125 -76.40625 86.203125 -72.40625 L 86.203125 -14.40625 C 86.203125 -10.40625 84.800781 -7.003906 82 -4.203125 C 79.195312 -1.398438 75.796875 0 71.796875 0 Z M 26.40625 0 "/></g></g></g><g fill="#000000" fill-opacity="0.4"><g transform="translate(322.580677, 594.088819)"><g/></g></g><g fill="#000000" fill-opacity="0.4"><g transform="translate(350.579928, 594.088819)"><g><path d="M 8 -41.59375 L 8 -60.40625 L 64.203125 -60.40625 L 64.203125 -41.59375 Z M 8 -41.59375 "/></g></g></g><g fill="#000000" fill-opacity="0.4"><g transform="translate(422.777998, 594.088819)"><g/></g></g><g fill="#000000" fill-opacity="0.4"><g transform="translate(450.777249, 594.088819)"><g><path d="M 12.40625 0 L 12.40625 -140 L 31 -140 L 58.796875 -54.59375 L 86.59375 -140 L 105.203125 -140 L 105.203125 0 L 86.59375 0 L 86.59375 -83.203125 L 68 -26.203125 L 49.59375 -26.203125 L 31 -83.203125 L 31 0 Z M 12.40625 0 "/></g></g></g><g fill="#000000" fill-opacity="0.4"><g transform="translate(568.374121, 594.088819)"><g><path d="M 26.40625 0 C 22.664062 0 19.394531 -1.398438 16.59375 -4.203125 C 13.800781 -7.003906 12.40625 -10.46875 12.40625 -14.59375 L 12.40625 -125.40625 C 12.40625 -129.53125 13.800781 -132.992188 16.59375 -135.796875 C 19.394531 -138.597656 22.664062 -140 26.40625 -140 L 71.796875 -140 C 76.066406 -140 79.566406 -138.597656 82.296875 -135.796875 C 85.035156 -132.992188 86.40625 -129.53125 86.40625 -125.40625 L 86.40625 -14.59375 C 86.40625 -10.46875 85.035156 -7.003906 82.296875 -4.203125 C 79.566406 -1.398438 76.066406 0 71.796875 0 Z M 37.796875 -18.40625 L 60.40625 -18.40625 C 62.664062 -18.40625 64.492188 -19.132812 65.890625 -20.59375 C 67.296875 -22.0625 68 -23.863281 68 -26 L 68 -114 C 68 -116.269531 67.296875 -118.101562 65.890625 -119.5 C 64.492188 -120.894531 62.664062 -121.59375 60.40625 -121.59375 L 37.796875 -121.59375 C 35.929688 -121.59375 34.296875 -120.894531 32.890625 -119.5 C 31.492188 -118.101562 30.796875 -116.269531 30.796875 -114 L 30.796875 -26 C 30.796875 -23.863281 31.492188 -22.0625 32.890625 -20.59375 C 34.296875 -19.132812 35.929688 -18.40625 37.796875 -18.40625 Z M 37.796875 -18.40625 "/></g></g></g><g fill="#000000" fill-opacity="0.4"><g transform="translate(667.171509, 594.088819)"><g><path d="M 12 0 L 12 -140 L 72 -140 C 75.863281 -140 79.195312 -138.597656 82 -135.796875 C 84.800781 -132.992188 86.203125 -129.59375 86.203125 -125.59375 L 86.203125 -82.59375 C 86.203125 -78.59375 84.800781 -75.191406 82 -72.390625 C 79.195312 -69.597656 75.863281 -68.203125 72 -68.203125 L 67.796875 -68.203125 L 86.203125 0 L 67.796875 0 L 49.203125 -68.203125 L 30.59375 -68.203125 L 30.59375 0 Z M 30.59375 -86.796875 L 60.59375 -86.796875 C 62.46875 -86.796875 64.132812 -87.492188 65.59375 -88.890625 C 67.0625 -90.296875 67.796875 -92 67.796875 -94 L 67.796875 -114.203125 C 67.796875 -116.203125 67.0625 -117.898438 65.59375 -119.296875 C 64.132812 -120.703125 62.46875 -121.40625 60.59375 -121.40625 L 30.59375 -121.40625 Z M 30.59375 -86.796875 "/></g></g></g><g fill="#000000" fill-opacity="0.4"><g transform="translate(765.368908, 594.088819)"><g><path d="M 26.40625 0 C 22.664062 0 19.394531 -1.398438 16.59375 -4.203125 C 13.800781 -7.003906 12.40625 -10.46875 12.40625 -14.59375 L 12.40625 -125.40625 C 12.40625 -129.53125 13.800781 -132.992188 16.59375 -135.796875 C 19.394531 -138.597656 22.664062 -140 26.40625 -140 L 71.796875 -140 C 76.066406 -140 79.566406 -138.597656 82.296875 -135.796875 C 85.035156 -132.992188 86.40625 -129.53125 86.40625 -125.40625 L 86.40625 -14.59375 C 86.40625 -10.46875 85.035156 -7.003906 82.296875 -4.203125 C 79.566406 -1.398438 76.066406 0 71.796875 0 Z M 37.796875 -18.40625 L 60.40625 -18.40625 C 62.664062 -18.40625 64.492188 -19.132812 65.890625 -20.59375 C 67.296875 -22.0625 68 -23.863281 68 -26 L 68 -114 C 68 -116.269531 67.296875 -118.101562 65.890625 -119.5 C 64.492188 -120.894531 62.664062 -121.59375 60.40625 -121.59375 L 37.796875 -121.59375 C 35.929688 -121.59375 34.296875 -120.894531 32.890625 -119.5 C 31.492188 -118.101562 30.796875 -116.269531 30.796875 -114 L 30.796875 -26 C 30.796875 -23.863281 31.492188 -22.0625 32.890625 -20.59375 C 34.296875 -19.132812 35.929688 -18.40625 37.796875 -18.40625 Z M 37.796875 -18.40625 "/></g></g></g><g fill="#000000" fill-opacity="0.4"><g transform="translate(864.16625, 594.088819)"><g><path d="M 12.40625 0 L 12.40625 -140 L 31 -140 L 68.203125 -46.59375 L 68.203125 -140 L 86.796875 -140 L 86.796875 0 L 68.203125 0 L 31 -93.40625 L 31 0 Z M 12.40625 0 "/></g></g></g><g fill="#000000" fill-opacity="0.4"><g transform="translate(963.363542, 594.088819)"><g><path d="M 26.796875 0 C 22.796875 0 19.394531 -1.398438 16.59375 -4.203125 C 13.800781 -7.003906 12.40625 -10.40625 12.40625 -14.40625 L 12.40625 -125.796875 C 12.40625 -129.660156 13.800781 -132.992188 16.59375 -135.796875 C 19.394531 -138.597656 22.796875 -140 26.796875 -140 L 72.203125 -140 C 76.203125 -140 79.597656 -138.597656 82.390625 -135.796875 C 85.191406 -132.992188 86.59375 -129.660156 86.59375 -125.796875 L 86.59375 -94.59375 L 68 -98.796875 L 68 -114.40625 C 68 -116.40625 67.296875 -118.101562 65.890625 -119.5 C 64.492188 -120.894531 62.796875 -121.59375 60.796875 -121.59375 L 38.203125 -121.59375 C 36.203125 -121.59375 34.5 -120.894531 33.09375 -119.5 C 31.695312 -118.101562 31 -116.40625 31 -114.40625 L 31 -25.796875 C 31 -23.796875 31.695312 -22.09375 33.09375 -20.6875 C 34.5 -19.289062 36.203125 -18.59375 38.203125 -18.59375 L 60.796875 -18.59375 C 62.796875 -18.59375 64.492188 -19.289062 65.890625 -20.6875 C 67.296875 -22.09375 68 -23.796875 68 -25.796875 L 68 -45.203125 L 49.59375 -45.203125 L 53.796875 -63.796875 L 86.59375 -63.796875 L 86.59375 -14.40625 C 86.59375 -10.40625 85.191406 -7.003906 82.390625 -4.203125 C 79.597656 -1.398438 76.203125 0 72.203125 0 Z M 26.796875 0 "/></g></g></g><g fill="#004aad" fill-opacity="1"><g transform="translate(18.349695, 585.249982)"><g><path d="M 26.796875 0 C 22.796875 0 19.394531 -1.398438 16.59375 -4.203125 C 13.800781 -7.003906 12.40625 -10.40625 12.40625 -14.40625 L 12.40625 -140 L 31 -140 L 31 -25.59375 C 31 -23.726562 31.695312 -22.09375 33.09375 -20.6875 C 34.5 -19.289062 36.203125 -18.59375 38.203125 -18.59375 L 60.796875 -18.59375 C 62.796875 -18.59375 64.492188 -19.289062 65.890625 -20.6875 C 67.296875 -22.09375 68 -23.726562 68 -25.59375 L 68 -140 L 86.59375 -140 L 86.59375 -14.40625 C 86.59375 -10.40625 85.191406 -7.003906 82.390625 -4.203125 C 79.597656 -1.398438 76.203125 0 72.203125 0 Z M 26.796875 0 "/></g></g></g><g fill="#004aad" fill-opacity="1"><g transform="translate(117.347046, 585.249982)"><g><path d="M 12 0 L 12 -140 L 72 -140 C 75.863281 -140 79.195312 -138.597656 82 -135.796875 C 84.800781 -132.992188 86.203125 -129.59375 86.203125 -125.59375 L 86.203125 -82.59375 C 86.203125 -78.59375 84.800781 -75.191406 82 -72.390625 C 79.195312 -69.597656 75.863281 -68.203125 72 -68.203125 L 67.796875 -68.203125 L 86.203125 0 L 67.796875 0 L 49.203125 -68.203125 L 30.59375 -68.203125 L 30.59375 0 Z M 30.59375 -86.796875 L 60.59375 -86.796875 C 62.46875 -86.796875 64.132812 -87.492188 65.59375 -88.890625 C 67.0625 -90.296875 67.796875 -92 67.796875 -94 L 67.796875 -114.203125 C 67.796875 -116.203125 67.0625 -117.898438 65.59375 -119.296875 C 64.132812 -120.703125 62.46875 -121.40625 60.59375 -121.40625 L 30.59375 -121.40625 Z M 30.59375 -86.796875 "/></g></g></g><g fill="#004aad" fill-opacity="1"><g transform="translate(215.544432, 585.249982)"><g><path d="M 26.40625 0 C 22.40625 0 19.003906 -1.398438 16.203125 -4.203125 C 13.398438 -7.003906 12 -10.40625 12 -14.40625 L 12 -45.40625 L 30.59375 -41.203125 L 30.59375 -25.796875 C 30.59375 -23.796875 31.289062 -22.09375 32.6875 -20.6875 C 34.09375 -19.289062 35.726562 -18.59375 37.59375 -18.59375 L 60.40625 -18.59375 C 62.40625 -18.59375 64.101562 -19.289062 65.5 -20.6875 C 66.894531 -22.09375 67.59375 -23.796875 67.59375 -25.796875 L 67.59375 -61 C 67.59375 -63 66.894531 -64.695312 65.5 -66.09375 C 64.101562 -67.5 62.40625 -68.203125 60.40625 -68.203125 L 26.40625 -68.203125 C 22.40625 -68.203125 19.003906 -69.597656 16.203125 -72.390625 C 13.398438 -75.191406 12 -78.59375 12 -82.59375 L 12 -125.59375 C 12 -129.59375 13.398438 -132.992188 16.203125 -135.796875 C 19.003906 -138.597656 22.40625 -140 26.40625 -140 L 71.796875 -140 C 75.796875 -140 79.195312 -138.597656 82 -135.796875 C 84.800781 -132.992188 86.203125 -129.59375 86.203125 -125.59375 L 86.203125 -104 L 67.59375 -108.40625 L 67.59375 -114.203125 C 67.59375 -116.203125 66.894531 -117.898438 65.5 -119.296875 C 64.101562 -120.703125 62.40625 -121.40625 60.40625 -121.40625 L 37.59375 -121.40625 C 35.726562 -121.40625 34.09375 -120.703125 32.6875 -119.296875 C 31.289062 -117.898438 30.59375 -116.203125 30.59375 -114.203125 L 30.59375 -94 C 30.59375 -92 31.289062 -90.296875 32.6875 -88.890625 C 34.09375 -87.492188 35.726562 -86.796875 37.59375 -86.796875 L 71.796875 -86.796875 C 75.796875 -86.796875 79.195312 -85.394531 82 -82.59375 C 84.800781 -79.800781 86.203125 -76.40625 86.203125 -72.40625 L 86.203125 -14.40625 C 86.203125 -10.40625 84.800781 -7.003906 82 -4.203125 C 79.195312 -1.398438 75.796875 0 71.796875 0 Z M 26.40625 0 "/></g></g></g><g fill="#004aad" fill-opacity="1"><g transform="translate(313.741831, 585.249982)"><g/></g></g><g fill="#004aad" fill-opacity="1"><g transform="translate(341.741081, 585.249982)"><g><path d="M 8 -41.59375 L 8 -60.40625 L 64.203125 -60.40625 L 64.203125 -41.59375 Z M 8 -41.59375 "/></g></g></g><g fill="#004aad" fill-opacity="1"><g transform="translate(413.939152, 585.249982)"><g/></g></g><g fill="#004aad" fill-opacity="1"><g transform="translate(441.938402, 585.249982)"><g><path d="M 12.40625 0 L 12.40625 -140 L 31 -140 L 58.796875 -54.59375 L 86.59375 -140 L 105.203125 -140 L 105.203125 0 L 86.59375 0 L 86.59375 -83.203125 L 68 -26.203125 L 49.59375 -26.203125 L 31 -83.203125 L 31 0 Z M 12.40625 0 "/></g></g></g><g fill="#004aad" fill-opacity="1"><g transform="translate(559.535274, 585.249982)"><g><path d="M 26.40625 0 C 22.664062 0 19.394531 -1.398438 16.59375 -4.203125 C 13.800781 -7.003906 12.40625 -10.46875 12.40625 -14.59375 L 12.40625 -125.40625 C 12.40625 -129.53125 13.800781 -132.992188 16.59375 -135.796875 C 19.394531 -138.597656 22.664062 -140 26.40625 -140 L 71.796875 -140 C 76.066406 -140 79.566406 -138.597656 82.296875 -135.796875 C 85.035156 -132.992188 86.40625 -129.53125 86.40625 -125.40625 L 86.40625 -14.59375 C 86.40625 -10.46875 85.035156 -7.003906 82.296875 -4.203125 C 79.566406 -1.398438 76.066406 0 71.796875 0 Z M 37.796875 -18.40625 L 60.40625 -18.40625 C 62.664062 -18.40625 64.492188 -19.132812 65.890625 -20.59375 C 67.296875 -22.0625 68 -23.863281 68 -26 L 68 -114 C 68 -116.269531 67.296875 -118.101562 65.890625 -119.5 C 64.492188 -120.894531 62.664062 -121.59375 60.40625 -121.59375 L 37.796875 -121.59375 C 35.929688 -121.59375 34.296875 -120.894531 32.890625 -119.5 C 31.492188 -118.101562 30.796875 -116.269531 30.796875 -114 L 30.796875 -26 C 30.796875 -23.863281 31.492188 -22.0625 32.890625 -20.59375 C 34.296875 -19.132812 35.929688 -18.40625 37.796875 -18.40625 Z M 37.796875 -18.40625 "/></g></g></g><g fill="#004aad" fill-opacity="1"><g transform="translate(658.332663, 585.249982)"><g><path d="M 12 0 L 12 -140 L 72 -140 C 75.863281 -140 79.195312 -138.597656 82 -135.796875 C 84.800781 -132.992188 86.203125 -129.59375 86.203125 -125.59375 L 86.203125 -82.59375 C 86.203125 -78.59375 84.800781 -75.191406 82 -72.390625 C 79.195312 -69.597656 75.863281 -68.203125 72 -68.203125 L 67.796875 -68.203125 L 86.203125 0 L 67.796875 0 L 49.203125 -68.203125 L 30.59375 -68.203125 L 30.59375 0 Z M 30.59375 -86.796875 L 60.59375 -86.796875 C 62.46875 -86.796875 64.132812 -87.492188 65.59375 -88.890625 C 67.0625 -90.296875 67.796875 -92 67.796875 -94 L 67.796875 -114.203125 C 67.796875 -116.203125 67.0625 -117.898438 65.59375 -119.296875 C 64.132812 -120.703125 62.46875 -121.40625 60.59375 -121.40625 L 30.59375 -121.40625 Z M 30.59375 -86.796875 "/></g></g></g><g fill="#004aad" fill-opacity="1"><g transform="translate(756.530061, 585.249982)"><g><path d="M 26.40625 0 C 22.664062 0 19.394531 -1.398438 16.59375 -4.203125 C 13.800781 -7.003906 12.40625 -10.46875 12.40625 -14.59375 L 12.40625 -125.40625 C 12.40625 -129.53125 13.800781 -132.992188 16.59375 -135.796875 C 19.394531 -138.597656 22.664062 -140 26.40625 -140 L 71.796875 -140 C 76.066406 -140 79.566406 -138.597656 82.296875 -135.796875 C 85.035156 -132.992188 86.40625 -129.53125 86.40625 -125.40625 L 86.40625 -14.59375 C 86.40625 -10.46875 85.035156 -7.003906 82.296875 -4.203125 C 79.566406 -1.398438 76.066406 0 71.796875 0 Z M 37.796875 -18.40625 L 60.40625 -18.40625 C 62.664062 -18.40625 64.492188 -19.132812 65.890625 -20.59375 C 67.296875 -22.0625 68 -23.863281 68 -26 L 68 -114 C 68 -116.269531 67.296875 -118.101562 65.890625 -119.5 C 64.492188 -120.894531 62.664062 -121.59375 60.40625 -121.59375 L 37.796875 -121.59375 C 35.929688 -121.59375 34.296875 -120.894531 32.890625 -119.5 C 31.492188 -118.101562 30.796875 -116.269531 30.796875 -114 L 30.796875 -26 C 30.796875 -23.863281 31.492188 -22.0625 32.890625 -20.59375 C 34.296875 -19.132812 35.929688 -18.40625 37.796875 -18.40625 Z M 37.796875 -18.40625 "/></g></g></g><g fill="#004aad" fill-opacity="1"><g transform="translate(855.327404, 585.249982)"><g><path d="M 12.40625 0 L 12.40625 -140 L 31 -140 L 68.203125 -46.59375 L 68.203125 -140 L 86.796875 -140 L 86.796875 0 L 68.203125 0 L 31 -93.40625 L 31 0 Z M 12.40625 0 "/></g></g></g><g fill="#004aad" fill-opacity="1"><g transform="translate(954.524695, 585.249982)"><g><path d="M 26.796875 0 C 22.796875 0 19.394531 -1.398438 16.59375 -4.203125 C 13.800781 -7.003906 12.40625 -10.40625 12.40625 -14.40625 L 12.40625 -125.796875 C 12.40625 -129.660156 13.800781 -132.992188 16.59375 -135.796875 C 19.394531 -138.597656 22.796875 -140 26.796875 -140 L 72.203125 -140 C 76.203125 -140 79.597656 -138.597656 82.390625 -135.796875 C 85.191406 -132.992188 86.59375 -129.660156 86.59375 -125.796875 L 86.59375 -94.59375 L 68 -98.796875 L 68 -114.40625 C 68 -116.40625 67.296875 -118.101562 65.890625 -119.5 C 64.492188 -120.894531 62.796875 -121.59375 60.796875 -121.59375 L 38.203125 -121.59375 C 36.203125 -121.59375 34.5 -120.894531 33.09375 -119.5 C 31.695312 -118.101562 31 -116.40625 31 -114.40625 L 31 -25.796875 C 31 -23.796875 31.695312 -22.09375 33.09375 -20.6875 C 34.5 -19.289062 36.203125 -18.59375 38.203125 -18.59375 L 60.796875 -18.59375 C 62.796875 -18.59375 64.492188 -19.289062 65.890625 -20.6875 C 67.296875 -22.09375 68 -23.796875 68 -25.796875 L 68 -45.203125 L 49.59375 -45.203125 L 53.796875 -63.796875 L 86.59375 -63.796875 L 86.59375 -14.40625 C 86.59375 -10.40625 85.191406 -7.003906 82.390625 -4.203125 C 79.597656 -1.398438 76.203125 0 72.203125 0 Z M 26.796875 0 "/></g></g></g><g fill="#ffde59" fill-opacity="1"><g transform="translate(10.505033, 690.949905)"><g><path d="M 28.984375 -46.890625 L 20.515625 -54.546875 L 20.515625 -63 L 28.984375 -63 Z M 12.0625 -46.890625 L 3.59375 -54.546875 L 3.59375 -63 L 12.0625 -63 Z M 12.0625 -46.890625 "/></g></g></g><g fill="#ffde59" fill-opacity="1"><g transform="translate(43.080787, 690.949905)"><g><path d="M 5.578125 0 L 5.578125 -63 L 13.953125 -63 L 30.6875 -20.96875 L 30.6875 -63 L 39.0625 -63 L 39.0625 0 L 30.6875 0 L 13.953125 -42.03125 L 13.953125 0 Z M 5.578125 0 "/></g></g></g><g fill="#ffde59" fill-opacity="1"><g transform="translate(87.714974, 690.949905)"><g><path d="M 10.171875 0 C 8.304688 0 6.742188 -0.628906 5.484375 -1.890625 C 4.222656 -3.148438 3.59375 -4.707031 3.59375 -6.5625 L 3.59375 -45 L 12.0625 -45 L 12.0625 -11.703125 C 12.0625 -10.859375 12.390625 -10.101562 13.046875 -9.4375 C 13.710938 -8.78125 14.460938 -8.453125 15.296875 -8.453125 L 20.515625 -8.453125 L 20.515625 -45 L 28.984375 -45 L 28.984375 0 Z M 10.171875 0 "/></g></g></g><g fill="#ffde59" fill-opacity="1"><g transform="translate(120.290729, 690.949905)"><g><path d="M 3.59375 0 L 3.59375 -45 L 22.40625 -45 C 24.207031 -45 25.753906 -44.351562 27.046875 -43.0625 C 28.335938 -41.769531 28.984375 -40.226562 28.984375 -38.4375 L 28.984375 -28.625 L 20.515625 -30.515625 L 20.515625 -33.203125 C 20.515625 -34.109375 20.195312 -34.890625 19.5625 -35.546875 C 18.9375 -36.210938 18.175781 -36.546875 17.28125 -36.546875 L 12.0625 -36.546875 L 12.0625 0 Z M 3.59375 0 "/></g></g></g><g fill="#ffde59" fill-opacity="1"><g transform="translate(152.866483, 690.949905)"><g><path d="M 3.59375 0 L 3.59375 -65.515625 L 12.0625 -67.40625 L 12.0625 -45 L 22.765625 -45 L 20.796875 -36.546875 L 12.0625 -36.546875 L 12.0625 0 Z M 3.59375 0 "/></g></g></g><g fill="#ffde59" fill-opacity="1"><g transform="translate(176.533401, 690.949905)"><g><path d="M 10.171875 0 C 8.304688 0 6.742188 -0.628906 5.484375 -1.890625 C 4.222656 -3.148438 3.59375 -4.707031 3.59375 -6.5625 L 3.59375 -45 L 12.0625 -45 L 12.0625 -11.703125 C 12.0625 -10.859375 12.390625 -10.101562 13.046875 -9.4375 C 13.710938 -8.78125 14.460938 -8.453125 15.296875 -8.453125 L 20.515625 -8.453125 L 20.515625 -45 L 28.984375 -45 L 28.984375 0 Z M 10.171875 0 "/></g></g></g><g fill="#ffde59" fill-opacity="1"><g transform="translate(209.109155, 690.949905)"><g><path d="M 3.59375 0 L 3.59375 -45 L 22.40625 -45 C 24.207031 -45 25.753906 -44.351562 27.046875 -43.0625 C 28.335938 -41.769531 28.984375 -40.226562 28.984375 -38.4375 L 28.984375 -28.625 L 20.515625 -30.515625 L 20.515625 -33.203125 C 20.515625 -34.109375 20.195312 -34.890625 19.5625 -35.546875 C 18.9375 -36.210938 18.175781 -36.546875 17.28125 -36.546875 L 12.0625 -36.546875 L 12.0625 0 Z M 3.59375 0 "/></g></g></g><g fill="#ffde59" fill-opacity="1"><g transform="translate(241.684921, 690.949905)"><g><path d="M 3.59375 -57.0625 L 3.59375 -65.515625 L 12.0625 -67.5 L 12.0625 -59.046875 Z M 3.78125 0 L 3.78125 -43.015625 L 12.234375 -45 L 12.234375 0 Z M 3.78125 0 "/></g></g></g><g fill="#ffde59" fill-opacity="1"><g transform="translate(257.522857, 690.949905)"><g><path d="M 4.859375 0 L 4.859375 -45 L 23.671875 -45 C 25.410156 -45 26.9375 -44.367188 28.25 -43.109375 C 29.570312 -41.847656 30.234375 -40.316406 30.234375 -38.515625 L 30.234375 0 L 21.78125 0 L 21.78125 -33.296875 C 21.78125 -34.253906 21.445312 -35.035156 20.78125 -35.640625 C 20.125 -36.242188 19.378906 -36.546875 18.546875 -36.546875 L 13.3125 -36.546875 L 13.3125 0 Z M 4.859375 0 "/></g></g></g><g fill="#ffde59" fill-opacity="1"><g transform="translate(292.618292, 690.949905)"><g><path d="M 10.171875 22.5 C 8.429688 22.5 6.898438 21.867188 5.578125 20.609375 C 4.253906 19.347656 3.59375 17.789062 3.59375 15.9375 L 3.59375 6.125 L 12.0625 8.09375 L 12.0625 10.796875 C 12.0625 11.640625 12.390625 12.390625 13.046875 13.046875 C 13.710938 13.710938 14.460938 14.046875 15.296875 14.046875 L 17.28125 14.046875 C 18.238281 14.046875 19.015625 13.710938 19.609375 13.046875 C 20.210938 12.390625 20.515625 11.640625 20.515625 10.796875 L 20.515625 0 L 10.171875 0 C 8.429688 0 6.898438 -0.628906 5.578125 -1.890625 C 4.253906 -3.148438 3.59375 -4.707031 3.59375 -6.5625 L 3.59375 -38.4375 C 3.59375 -40.289062 4.253906 -41.847656 5.578125 -43.109375 C 6.898438 -44.367188 8.429688 -45 10.171875 -45 L 28.984375 -45 L 28.984375 15.9375 C 28.984375 17.789062 28.351562 19.347656 27.09375 20.609375 C 25.832031 21.867188 24.269531 22.5 22.40625 22.5 Z M 15.296875 -8.453125 L 17.28125 -8.453125 C 18.238281 -8.453125 19.015625 -8.78125 19.609375 -9.4375 C 20.210938 -10.101562 20.515625 -10.859375 20.515625 -11.703125 L 20.515625 -36.546875 L 15.296875 -36.546875 C 14.460938 -36.546875 13.710938 -36.242188 13.046875 -35.640625 C 12.390625 -35.035156 12.0625 -34.253906 12.0625 -33.296875 L 12.0625 -11.703125 C 12.0625 -10.859375 12.390625 -10.101562 13.046875 -9.4375 C 13.710938 -8.78125 14.460938 -8.453125 15.296875 -8.453125 Z M 15.296875 -8.453125 "/></g></g></g><g fill="#ffde59" fill-opacity="1"><g transform="translate(325.194058, 690.949905)"><g/></g></g><g fill="#ffde59" fill-opacity="1"><g transform="translate(337.792423, 690.949905)"><g><path d="M 17.734375 0 L 17.734375 -54.625 L 5.21875 -54.625 L 5.21875 -63 L 38.609375 -63 L 38.609375 -54.625 L 26.09375 -54.625 L 26.09375 0 Z M 17.734375 0 "/></g></g></g><g fill="#ffde59" fill-opacity="1"><g transform="translate(381.616724, 690.949905)"><g><path d="M 10.890625 0 C 9.023438 0 7.460938 -0.644531 6.203125 -1.9375 C 4.941406 -3.226562 4.3125 -4.769531 4.3125 -6.5625 L 4.3125 -38.4375 C 4.3125 -40.226562 4.941406 -41.769531 6.203125 -43.0625 C 7.460938 -44.351562 9.023438 -45 10.890625 -45 L 23.125 -45 C 24.925781 -45 26.457031 -44.351562 27.71875 -43.0625 C 28.976562 -41.769531 29.609375 -40.226562 29.609375 -38.4375 L 29.609375 -6.5625 C 29.609375 -4.769531 28.976562 -3.226562 27.71875 -1.9375 C 26.457031 -0.644531 24.925781 0 23.125 0 Z M 16.015625 -8.453125 L 17.90625 -8.453125 C 18.8125 -8.453125 19.59375 -8.765625 20.25 -9.390625 C 20.90625 -10.023438 21.234375 -10.796875 21.234375 -11.703125 L 21.234375 -33.296875 C 21.234375 -34.203125 20.90625 -34.96875 20.25 -35.59375 C 19.59375 -36.226562 18.8125 -36.546875 17.90625 -36.546875 L 16.015625 -36.546875 C 15.117188 -36.546875 14.351562 -36.226562 13.71875 -35.59375 C 13.09375 -34.96875 12.78125 -34.203125 12.78125 -33.296875 L 12.78125 -11.703125 C 12.78125 -10.796875 13.09375 -10.023438 13.71875 -9.390625 C 14.351562 -8.765625 15.117188 -8.453125 16.015625 -8.453125 Z M 16.015625 -8.453125 "/></g></g></g><g fill="#ffde59" fill-opacity="1"><g transform="translate(414.912392, 690.949905)"><g><path d="M 6.03125 0 L 6.03125 -45 L 41.765625 -45 C 43.554688 -45 45.082031 -44.351562 46.34375 -43.0625 C 47.601562 -41.769531 48.234375 -40.226562 48.234375 -38.4375 L 48.234375 0 L 39.875 0 L 39.875 -33.296875 C 39.875 -34.203125 39.539062 -34.96875 38.875 -35.59375 C 38.21875 -36.226562 37.441406 -36.546875 36.546875 -36.546875 L 31.40625 -36.546875 L 31.40625 0 L 22.953125 0 L 22.953125 -33.296875 C 22.953125 -34.203125 22.617188 -34.96875 21.953125 -35.59375 C 21.296875 -36.226562 20.519531 -36.546875 19.625 -36.546875 L 14.484375 -36.546875 L 14.484375 0 Z M 6.03125 0 "/></g></g></g><g fill="#ffde59" fill-opacity="1"><g transform="translate(468.90534, 690.949905)"><g><path d="M 6.03125 0 L 6.03125 -45 L 41.765625 -45 C 43.554688 -45 45.082031 -44.351562 46.34375 -43.0625 C 47.601562 -41.769531 48.234375 -40.226562 48.234375 -38.4375 L 48.234375 0 L 39.875 0 L 39.875 -33.296875 C 39.875 -34.203125 39.539062 -34.96875 38.875 -35.59375 C 38.21875 -36.226562 37.441406 -36.546875 36.546875 -36.546875 L 31.40625 -36.546875 L 31.40625 0 L 22.953125 0 L 22.953125 -33.296875 C 22.953125 -34.203125 22.617188 -34.96875 21.953125 -35.59375 C 21.296875 -36.226562 20.519531 -36.546875 19.625 -36.546875 L 14.484375 -36.546875 L 14.484375 0 Z M 6.03125 0 "/></g></g></g><g fill="#ffde59" fill-opacity="1"><g transform="translate(522.898288, 690.949905)"><g><path d="M 10.890625 0 C 9.023438 0 7.460938 -0.644531 6.203125 -1.9375 C 4.941406 -3.226562 4.3125 -4.769531 4.3125 -6.5625 L 4.3125 -38.4375 C 4.3125 -40.226562 4.941406 -41.769531 6.203125 -43.0625 C 7.460938 -44.351562 9.023438 -45 10.890625 -45 L 23.125 -45 C 24.925781 -45 26.457031 -44.351562 27.71875 -43.0625 C 28.976562 -41.769531 29.609375 -40.226562 29.609375 -38.4375 L 29.609375 -6.5625 C 29.609375 -4.769531 28.976562 -3.226562 27.71875 -1.9375 C 26.457031 -0.644531 24.925781 0 23.125 0 Z M 16.015625 -8.453125 L 17.90625 -8.453125 C 18.8125 -8.453125 19.59375 -8.765625 20.25 -9.390625 C 20.90625 -10.023438 21.234375 -10.796875 21.234375 -11.703125 L 21.234375 -33.296875 C 21.234375 -34.203125 20.90625 -34.96875 20.25 -35.59375 C 19.59375 -36.226562 18.8125 -36.546875 17.90625 -36.546875 L 16.015625 -36.546875 C 15.117188 -36.546875 14.351562 -36.226562 13.71875 -35.59375 C 13.09375 -34.96875 12.78125 -34.203125 12.78125 -33.296875 L 12.78125 -11.703125 C 12.78125 -10.796875 13.09375 -10.023438 13.71875 -9.390625 C 14.351562 -8.765625 15.117188 -8.453125 16.015625 -8.453125 Z M 16.015625 -8.453125 "/></g></g></g><g fill="#ffde59" fill-opacity="1"><g transform="translate(556.193956, 690.949905)"><g><path d="M 3.59375 0 L 3.59375 -45 L 22.40625 -45 C 24.207031 -45 25.753906 -44.351562 27.046875 -43.0625 C 28.335938 -41.769531 28.984375 -40.226562 28.984375 -38.4375 L 28.984375 -28.625 L 20.515625 -30.515625 L 20.515625 -33.203125 C 20.515625 -34.109375 20.195312 -34.890625 19.5625 -35.546875 C 18.9375 -36.210938 18.175781 -36.546875 17.28125 -36.546875 L 12.0625 -36.546875 L 12.0625 0 Z M 3.59375 0 "/></g></g></g><g fill="#ffde59" fill-opacity="1"><g transform="translate(588.769698, 690.949905)"><g><path d="M 3.59375 0 L 3.59375 -45 L 22.40625 -45 C 24.207031 -45 25.753906 -44.351562 27.046875 -43.0625 C 28.335938 -41.769531 28.984375 -40.226562 28.984375 -38.4375 L 28.984375 -28.625 L 20.515625 -30.515625 L 20.515625 -33.203125 C 20.515625 -34.109375 20.195312 -34.890625 19.5625 -35.546875 C 18.9375 -36.210938 18.175781 -36.546875 17.28125 -36.546875 L 12.0625 -36.546875 L 12.0625 0 Z M 3.59375 0 "/></g></g></g><g fill="#ffde59" fill-opacity="1"><g transform="translate(621.345441, 690.949905)"><g><path d="M 10.890625 0 C 9.023438 0 7.460938 -0.644531 6.203125 -1.9375 C 4.941406 -3.226562 4.3125 -4.769531 4.3125 -6.5625 L 4.3125 -38.4375 C 4.3125 -40.226562 4.941406 -41.769531 6.203125 -43.0625 C 7.460938 -44.351562 9.023438 -45 10.890625 -45 L 23.125 -45 C 24.925781 -45 26.457031 -44.351562 27.71875 -43.0625 C 28.976562 -41.769531 29.609375 -40.226562 29.609375 -38.4375 L 29.609375 -6.5625 C 29.609375 -4.769531 28.976562 -3.226562 27.71875 -1.9375 C 26.457031 -0.644531 24.925781 0 23.125 0 Z M 16.015625 -8.453125 L 17.90625 -8.453125 C 18.8125 -8.453125 19.59375 -8.765625 20.25 -9.390625 C 20.90625 -10.023438 21.234375 -10.796875 21.234375 -11.703125 L 21.234375 -33.296875 C 21.234375 -34.203125 20.90625 -34.96875 20.25 -35.59375 C 19.59375 -36.226562 18.8125 -36.546875 17.90625 -36.546875 L 16.015625 -36.546875 C 15.117188 -36.546875 14.351562 -36.226562 13.71875 -35.59375 C 13.09375 -34.96875 12.78125 -34.203125 12.78125 -33.296875 L 12.78125 -11.703125 C 12.78125 -10.796875 13.09375 -10.023438 13.71875 -9.390625 C 14.351562 -8.765625 15.117188 -8.453125 16.015625 -8.453125 Z M 16.015625 -8.453125 "/></g></g></g><g fill="#ffde59" fill-opacity="1"><g transform="translate(654.641109, 690.949905)"><g><path d="M 10.171875 0 C 8.367188 0 6.820312 -0.644531 5.53125 -1.9375 C 4.238281 -3.226562 3.59375 -4.769531 3.59375 -6.5625 L 3.59375 -45 L 12.0625 -45 L 12.0625 -11.703125 C 12.0625 -10.796875 12.375 -10.023438 13 -9.390625 C 13.632812 -8.765625 14.398438 -8.453125 15.296875 -8.453125 L 20.515625 -8.453125 L 20.515625 -45 L 28.984375 -45 L 28.984375 -11.703125 C 28.984375 -10.796875 29.296875 -10.023438 29.921875 -9.390625 C 30.554688 -8.765625 31.320312 -8.453125 32.21875 -8.453125 L 37.34375 -8.453125 L 37.34375 -45 L 45.8125 -45 L 45.8125 0 Z M 10.171875 0 "/></g></g></g><g fill="#ffde59" fill-opacity="1"><g transform="translate(704.044702, 690.949905)"><g><path d="M 12.0625 -46.890625 L 3.59375 -54.546875 L 3.59375 -63 L 12.0625 -63 Z M 12.0625 -46.890625 "/></g></g></g><g fill="#ffde59" fill-opacity="1"><g transform="translate(719.70269, 690.949905)"><g><path d="M 10.078125 0 C 8.273438 0 6.742188 -0.644531 5.484375 -1.9375 C 4.222656 -3.226562 3.59375 -4.769531 3.59375 -6.5625 L 3.59375 -14.046875 L 11.96875 -14.046875 L 11.96875 -11.703125 C 11.96875 -10.796875 12.296875 -10.023438 12.953125 -9.390625 C 13.617188 -8.765625 14.398438 -8.453125 15.296875 -8.453125 L 17.1875 -8.453125 C 18.09375 -8.453125 18.859375 -8.765625 19.484375 -9.390625 C 20.117188 -10.023438 20.4375 -10.796875 20.4375 -11.703125 L 20.4375 -15.03125 C 20.4375 -15.925781 20.117188 -16.6875 19.484375 -17.3125 C 18.859375 -17.945312 18.09375 -18.265625 17.1875 -18.265625 L 10.078125 -18.265625 C 8.273438 -18.265625 6.742188 -18.910156 5.484375 -20.203125 C 4.222656 -21.492188 3.59375 -23.039062 3.59375 -24.84375 L 3.59375 -38.4375 C 3.59375 -40.226562 4.222656 -41.769531 5.484375 -43.0625 C 6.742188 -44.351562 8.273438 -45 10.078125 -45 L 22.40625 -45 C 24.207031 -45 25.738281 -44.351562 27 -43.0625 C 28.257812 -41.769531 28.890625 -40.226562 28.890625 -38.4375 L 28.890625 -30.953125 L 20.4375 -30.953125 L 20.4375 -33.296875 C 20.4375 -34.203125 20.117188 -34.96875 19.484375 -35.59375 C 18.859375 -36.226562 18.09375 -36.546875 17.1875 -36.546875 L 15.296875 -36.546875 C 14.398438 -36.546875 13.617188 -36.226562 12.953125 -35.59375 C 12.296875 -34.96875 11.96875 -34.203125 11.96875 -33.296875 L 11.96875 -29.96875 C 11.96875 -29.070312 12.296875 -28.304688 12.953125 -27.671875 C 13.617188 -27.046875 14.398438 -26.734375 15.296875 -26.734375 L 22.40625 -26.734375 C 24.207031 -26.734375 25.738281 -26.085938 27 -24.796875 C 28.257812 -23.503906 28.890625 -21.957031 28.890625 -20.15625 L 28.890625 -6.203125 C 28.828125 -4.523438 28.164062 -3.070312 26.90625 -1.84375 C 25.644531 -0.613281 24.144531 0 22.40625 0 Z M 10.078125 0 "/></g></g></g><g fill="#ffde59" fill-opacity="1"><g transform="translate(752.188437, 690.949905)"><g/></g></g><g fill="#ffde59" fill-opacity="1"><g transform="translate(764.786825, 690.949905)"><g><path d="M 5.578125 0 L 5.578125 -63 L 13.953125 -63 L 30.6875 -20.96875 L 30.6875 -63 L 39.0625 -63 L 39.0625 0 L 30.6875 0 L 13.953125 -42.03125 L 13.953125 0 Z M 5.578125 0 "/></g></g></g><g fill="#ffde59" fill-opacity="1"><g transform="translate(809.420978, 690.949905)"><g><path d="M 10.890625 0 C 9.023438 0 7.460938 -0.644531 6.203125 -1.9375 C 4.941406 -3.226562 4.3125 -4.769531 4.3125 -6.5625 L 4.3125 -38.4375 C 4.3125 -40.226562 4.941406 -41.769531 6.203125 -43.0625 C 7.460938 -44.351562 9.023438 -45 10.890625 -45 L 23.125 -45 C 24.925781 -45 26.457031 -44.351562 27.71875 -43.0625 C 28.976562 -41.769531 29.609375 -40.226562 29.609375 -38.4375 L 29.609375 -6.5625 C 29.609375 -4.769531 28.976562 -3.226562 27.71875 -1.9375 C 26.457031 -0.644531 24.925781 0 23.125 0 Z M 16.015625 -8.453125 L 17.90625 -8.453125 C 18.8125 -8.453125 19.59375 -8.765625 20.25 -9.390625 C 20.90625 -10.023438 21.234375 -10.796875 21.234375 -11.703125 L 21.234375 -33.296875 C 21.234375 -34.203125 20.90625 -34.96875 20.25 -35.59375 C 19.59375 -36.226562 18.8125 -36.546875 17.90625 -36.546875 L 16.015625 -36.546875 C 15.117188 -36.546875 14.351562 -36.226562 13.71875 -35.59375 C 13.09375 -34.96875 12.78125 -34.203125 12.78125 -33.296875 L 12.78125 -11.703125 C 12.78125 -10.796875 13.09375 -10.023438 13.71875 -9.390625 C 14.351562 -8.765625 15.117188 -8.453125 16.015625 -8.453125 Z M 16.015625 -8.453125 "/></g></g></g><g fill="#ffde59" fill-opacity="1"><g transform="translate(842.7166, 690.949905)"><g><path d="M 3.59375 0 L 3.59375 -65.609375 L 12.0625 -67.5 L 12.0625 -45 L 22.40625 -45 C 24.207031 -45 25.753906 -44.367188 27.046875 -43.109375 C 28.335938 -41.847656 28.984375 -40.289062 28.984375 -38.4375 L 28.984375 -6.5625 C 28.984375 -4.769531 28.335938 -3.226562 27.046875 -1.9375 C 25.753906 -0.644531 24.207031 0 22.40625 0 Z M 12.0625 -8.453125 L 17.1875 -8.453125 C 18.09375 -8.453125 18.875 -8.765625 19.53125 -9.390625 C 20.1875 -10.023438 20.515625 -10.796875 20.515625 -11.703125 L 20.515625 -33.296875 C 20.515625 -34.203125 20.1875 -34.96875 19.53125 -35.59375 C 18.875 -36.226562 18.09375 -36.546875 17.1875 -36.546875 L 12.0625 -36.546875 Z M 12.0625 -8.453125 "/></g></g></g><g fill="#ffde59" fill-opacity="1"><g transform="translate(875.292343, 690.949905)"><g><path d="M 3.59375 0 L 3.59375 -65.4375 L 12.0625 -67.3125 L 12.0625 0 Z M 3.59375 0 "/></g></g></g><g fill="#ffde59" fill-opacity="1"><g transform="translate(890.950331, 690.949905)"><g><path d="M 10.171875 0 C 8.367188 0 6.820312 -0.644531 5.53125 -1.9375 C 4.238281 -3.226562 3.59375 -4.769531 3.59375 -6.5625 L 3.59375 -38.515625 C 3.59375 -40.316406 4.238281 -41.847656 5.53125 -43.109375 C 6.820312 -44.367188 8.367188 -45 10.171875 -45 L 22.40625 -45 C 24.269531 -45 25.832031 -44.367188 27.09375 -43.109375 C 28.351562 -41.847656 28.984375 -40.316406 28.984375 -38.515625 L 28.984375 -24.84375 C 28.984375 -23.039062 28.351562 -21.492188 27.09375 -20.203125 C 25.832031 -18.910156 24.269531 -18.265625 22.40625 -18.265625 L 12.0625 -18.265625 L 12.0625 -11.703125 C 12.0625 -10.796875 12.375 -10.023438 13 -9.390625 C 13.632812 -8.765625 14.429688 -8.453125 15.390625 -8.453125 L 27.09375 -8.453125 L 28.984375 0 Z M 12.0625 -26.734375 L 17.28125 -26.734375 C 18.175781 -26.734375 18.9375 -27.046875 19.5625 -27.671875 C 20.195312 -28.304688 20.515625 -29.070312 20.515625 -29.96875 L 20.515625 -33.296875 C 20.515625 -34.203125 20.195312 -34.96875 19.5625 -35.59375 C 18.9375 -36.226562 18.175781 -36.546875 17.28125 -36.546875 L 15.390625 -36.546875 C 14.429688 -36.546875 13.632812 -36.226562 13 -35.59375 C 12.375 -34.96875 12.0625 -34.203125 12.0625 -33.296875 Z M 12.0625 -26.734375 "/></g></g></g><g fill="#ffde59" fill-opacity="1"><g transform="translate(923.526074, 690.949905)"><g><path d="M 10.078125 0 C 8.273438 0 6.742188 -0.644531 5.484375 -1.9375 C 4.222656 -3.226562 3.59375 -4.769531 3.59375 -6.5625 L 3.59375 -14.046875 L 11.96875 -14.046875 L 11.96875 -11.703125 C 11.96875 -10.796875 12.296875 -10.023438 12.953125 -9.390625 C 13.617188 -8.765625 14.398438 -8.453125 15.296875 -8.453125 L 17.1875 -8.453125 C 18.09375 -8.453125 18.859375 -8.765625 19.484375 -9.390625 C 20.117188 -10.023438 20.4375 -10.796875 20.4375 -11.703125 L 20.4375 -15.03125 C 20.4375 -15.925781 20.117188 -16.6875 19.484375 -17.3125 C 18.859375 -17.945312 18.09375 -18.265625 17.1875 -18.265625 L 10.078125 -18.265625 C 8.273438 -18.265625 6.742188 -18.910156 5.484375 -20.203125 C 4.222656 -21.492188 3.59375 -23.039062 3.59375 -24.84375 L 3.59375 -38.4375 C 3.59375 -40.226562 4.222656 -41.769531 5.484375 -43.0625 C 6.742188 -44.351562 8.273438 -45 10.078125 -45 L 22.40625 -45 C 24.207031 -45 25.738281 -44.351562 27 -43.0625 C 28.257812 -41.769531 28.890625 -40.226562 28.890625 -38.4375 L 28.890625 -30.953125 L 20.4375 -30.953125 L 20.4375 -33.296875 C 20.4375 -34.203125 20.117188 -34.96875 19.484375 -35.59375 C 18.859375 -36.226562 18.09375 -36.546875 17.1875 -36.546875 L 15.296875 -36.546875 C 14.398438 -36.546875 13.617188 -36.226562 12.953125 -35.59375 C 12.296875 -34.96875 11.96875 -34.203125 11.96875 -33.296875 L 11.96875 -29.96875 C 11.96875 -29.070312 12.296875 -28.304688 12.953125 -27.671875 C 13.617188 -27.046875 14.398438 -26.734375 15.296875 -26.734375 L 22.40625 -26.734375 C 24.207031 -26.734375 25.738281 -26.085938 27 -24.796875 C 28.257812 -23.503906 28.890625 -21.957031 28.890625 -20.15625 L 28.890625 -6.203125 C 28.828125 -4.523438 28.164062 -3.070312 26.90625 -1.84375 C 25.644531 -0.613281 24.144531 0 22.40625 0 Z M 10.078125 0 "/></g></g></g><g fill="#ffde59" fill-opacity="1"><g transform="translate(956.011821, 690.949905)"><g><path d="M 3.59375 0 L 3.59375 -65.515625 L 12.0625 -67.40625 L 12.0625 -45 L 22.765625 -45 L 20.796875 -36.546875 L 12.0625 -36.546875 L 12.0625 0 Z M 3.59375 0 "/></g></g></g><g fill="#ffde59" fill-opacity="1"><g transform="translate(979.678751, 690.949905)"><g><path d="M 28.984375 -46.890625 L 20.515625 -54.546875 L 20.515625 -63 L 28.984375 -63 Z M 12.0625 -46.890625 L 3.59375 -54.546875 L 3.59375 -63 L 12.0625 -63 Z M 12.0625 -46.890625 "/></g></g></g></svg>